<?xml version="1.0" standalone="no"?>
<!DOCTYPE svg PUBLIC "-//W3C//DTD SVG 20010904//EN"
 "http://www.w3.org/TR/2001/REC-SVG-20010904/DTD/svg10.dtd">
<svg version="1.0" xmlns="http://www.w3.org/2000/svg"
 width="288.000000pt" height="175.000000pt" viewBox="0 0 288.000000 175.000000"
 preserveAspectRatio="xMidYMid meet">

<g transform="translate(0.000000,175.000000) scale(0.100000,-0.100000)"
fill="#000000" stroke="none">
<path d="M1095 1271 c-47 -20 -58 -47 -66 -159 -4 -59 -12 -120 -19 -137 -13
-36 -58 -85 -77 -85 -8 0 -13 -12 -13 -28 0 -22 7 -30 30 -39 45 -17 70 -82
79 -206 8 -107 18 -140 52 -157 28 -15 691 -15 719 0 33 18 47 60 52 160 6
118 32 186 78 203 23 9 30 17 30 39 0 16 -5 28 -13 28 -19 0 -64 49 -77 85 -7
17 -15 79 -19 138 -7 99 -10 110 -34 135 l-27 27 -338 2 c-185 1 -346 -2 -357
-6z m440 -201 c23 -11 47 -32 53 -46 24 -52 7 -115 -39 -140 -18 -10 -20 -13
-7 -14 9 0 30 -14 47 -31 26 -26 31 -38 31 -78 0 -34 -6 -56 -22 -76 -34 -44
-75 -55 -203 -55 l-115 0 0 230 0 230 107 0 c87 0 115 -4 148 -20z"/>
<path d="M1360 960 l0 -60 58 0 c70 0 102 19 102 60 0 46 -23 60 -96 60 l-64
0 0 -60z"/>
<path d="M1360 772 c0 -70 0 -70 30 -77 40 -9 111 3 133 23 23 20 22 74 -2 96
-12 11 -44 19 -90 23 l-71 6 0 -71z"/>
</g>
</svg>
